<svg xmlns="http://www.w3.org/2000/svg" viewBox="0 0 198.41 164"><defs><style>.cls-1{fill:#03a9f4;}.cls-2{fill:#f2e006;}.cls-3{fill:#5e5b4f;}.cls-4{fill:#fff;}.cls-5{fill:none;stroke:#232321;stroke-miterlimit:10;}</style></defs><title>request_man</title><g id="Слой_2" data-name="Слой 2"><g id="request"><g id="request_man"><circle class="cls-1" cx="43.85" cy="23.06" r="19.81"/><path class="cls-1" d="M87.67,90.67V90.5A43.84,43.84,0,1,0,0,90.5v.17Z"/><rect class="cls-2" x="93.92" width="104.49" height="18.74" rx="9.37" ry="9.37"/><rect class="cls-2" x="93.92" y="24.05" width="104.49" height="18.74" rx="9.37" ry="9.37"/><rect class="cls-2" x="93.92" y="48.11" width="104.49" height="18.74" rx="9.37" ry="9.37"/><rect class="cls-2" x="93.92" y="72.16" width="104.49" height="18.74" rx="9.37" ry="9.37"/><rect class="cls-3" x="0.21" y="100.74" width="198.21" height="63.26" rx="12" ry="12"/><rect class="cls-4" x="28.79" y="111.52" width="30.93" height="35.14"/><line class="cls-5" x1="35.59" y1="120.42" x2="51.99" y2="120.42"/><line class="cls-5" x1="35.59" y1="126.9" x2="51.99" y2="126.9"/><line class="cls-5" x1="35.59" y1="133.39" x2="51.99" y2="133.39"/><line class="cls-5" x1="35.59" y1="139.87" x2="51.99" y2="139.87"/></g></g></g></svg>